<?xml version="1.0" encoding="UTF-8" standalone="no"?>
<svg
   xmlns:dc="http://purl.org/dc/elements/1.1/"
   xmlns:cc="http://creativecommons.org/ns#"
   xmlns:rdf="http://www.w3.org/1999/02/22-rdf-syntax-ns#"
   xmlns:svg="http://www.w3.org/2000/svg"
   xmlns="http://www.w3.org/2000/svg"
   xmlns:sodipodi="http://sodipodi.sourceforge.net/DTD/sodipodi-0.dtd"
   xmlns:inkscape="http://www.inkscape.org/namespaces/inkscape"
   inkscape:export-ydpi="14"
   inkscape:export-xdpi="14"
   inkscape:export-filename="/home/muncho/Pictures/godzila.png"
   sodipodi:docname="godzila.svg"
   inkscape:version="1.0 (4035a4fb49, 2020-05-01)"
   id="svg8"
   version="1.1"
   viewBox="0 0 210 297"
   height="297mm"
   width="210mm">
  <defs
     id="defs2" />
  <sodipodi:namedview
     inkscape:window-maximized="1"
     inkscape:window-y="0"
     inkscape:window-x="0"
     inkscape:window-height="712"
     inkscape:window-width="1360"
     showgrid="false"
     inkscape:document-rotation="0"
     inkscape:current-layer="layer1"
     inkscape:document-units="mm"
     inkscape:cy="659.43651"
     inkscape:cx="345.98525"
     inkscape:zoom="0.49497475"
     inkscape:pageshadow="2"
     inkscape:pageopacity="0.0"
     borderopacity="1.0"
     bordercolor="#666666"
     pagecolor="#ffffff"
     id="base" />
  <metadata
     id="metadata5">
    <rdf:RDF>
      <cc:Work
         rdf:about="">
        <dc:format>image/svg+xml</dc:format>
        <dc:type
           rdf:resource="http://purl.org/dc/dcmitype/StillImage" />
        <dc:title></dc:title>
      </cc:Work>
    </rdf:RDF>
  </metadata>
  <g
     id="layer1"
     inkscape:groupmode="layer"
     inkscape:label="Layer 1">
    <path
       id="path120"
       d="m 136.76131,59.610933 c 9.90462,0.251484 9.90462,0.251484 9.90462,0.251484 l -0.61182,-10.311456 39.51563,0.500155 0.45979,9.106726 5.69543,-0.465204 1.07796,0.322033"
       style="fill:none;stroke:#000000;stroke-width:0.264583px;stroke-linecap:butt;stroke-linejoin:miter;stroke-opacity:1" />
    <path
       id="path122"
       d="m 192.80292,59.014671 1.02509,24.050002 v 0 l -21.73553,0.0478 v 0 l -0.21695,9.555596 21.5984,0.299194"
       style="fill:none;stroke:#000000;stroke-width:0.264583px;stroke-linecap:butt;stroke-linejoin:miter;stroke-opacity:1" />
    <path
       id="path124"
       d="m 136.76131,59.610933 0.59049,49.515547"
       style="fill:none;stroke:#000000;stroke-width:0.264583px;stroke-linecap:butt;stroke-linejoin:miter;stroke-opacity:1" />
    <path
       id="path126"
       d="M 193.47393,92.967263 Z"
       style="fill:none;stroke:#000000;stroke-width:0.264583px;stroke-linecap:butt;stroke-linejoin:miter;stroke-opacity:1" />
    <path
       id="path128"
       d="m 193.47757,92.969895 v 0 0 0 0 0 l -0.48718,9.706435"
       style="fill:none;stroke:#000000;stroke-width:0.201199px;stroke-linecap:butt;stroke-linejoin:miter;stroke-opacity:1" />
    <path
       sodipodi:nodetypes="ccc"
       id="path130"
       d="m 192.99039,102.67633 -34.62529,0.13201 0.11037,14.93166 42.94729,0.36564 -0.13368,6.80436 -0.1896,5.22186 -4.74241,0.11347 0.19993,-7.85649 -8.02479,-0.29217"
       style="fill:none;stroke:#000000;stroke-width:0.264583px;stroke-linecap:butt;stroke-linejoin:miter;stroke-opacity:1" />
    <path
       id="path132"
       d="m 137.3518,109.12648 v 0 l -17.93878,0.42449 -0.33248,11.23212 -13.37571,0.13074 -0.63483,11.65435 -11.400422,-0.95368 0.630083,9.65449 -11.181396,-0.35426 -0.485528,10.22031 -12.780781,-0.27636 0.03091,12.65916 -25.997583,-0.62521"
       style="fill:none;stroke:#000000;stroke-width:0.264583px;stroke-linecap:butt;stroke-linejoin:miter;stroke-opacity:1" />
    <path
       id="path134"
       d="m 43.886893,162.89062 v 0 0 0 L 43.657455,152.2094"
       style="fill:none;stroke:#000000;stroke-width:0.206356px;stroke-linecap:butt;stroke-linejoin:miter;stroke-opacity:1" />
    <path
       id="path136"
       d="m 43.657455,152.2094 v 0 l -17.132448,0.1153 -0.409582,-8.59144 -11.644823,0.32869 -0.03031,-12.0219 -9.8954833,0.48626 0.00895,55.20275"
       style="fill:none;stroke:#000000;stroke-width:0.226416px;stroke-linecap:butt;stroke-linejoin:miter;stroke-opacity:1" />
    <path
       id="path138"
       d="m 4.5537588,187.72906 19.1932222,0.13048 0.250077,9.57465 9.35634,0.5731 -0.590587,10.56585 12.221337,-0.30259 -0.279283,10.6522 12.21737,0.96649 -0.171132,10.18101 12.10742,0.67333 0.07027,45.93467 18.691366,0.27739 -0.230052,-11.32609 -9.151942,0.24071 -0.689373,-22.18534 v 0 l 11.409741,0.37692 -0.330545,-13.62265 12.735472,0.54909 -0.44663,-11.84865 20.82758,-1.08488 0.0482,14.99468 12.48987,0.29465 -0.0173,12.28125 10.71193,0.29944 0.0442,32.00423 23.24526,-0.18557 0.10119,-9.43713 -13.92486,-0.41332 -0.51612,-22.73814"
       style="fill:none;stroke:#000000;stroke-width:0.264583px;stroke-linecap:butt;stroke-linejoin:miter;stroke-opacity:1" />
    <path
       id="path142"
       d="m 188.53798,122.09448 -1.20283,37.31181 -10.47829,0.27271 -0.0898,45.78005 -7.83189,-0.80181 0.12813,23.61588 -7.01982,-0.0142 0.22441,7.1388 -8.76577,-0.68711"
       style="fill:none;stroke:#000000;stroke-width:0.256565px;stroke-linecap:butt;stroke-linejoin:miter;stroke-opacity:1" />
    <path
       id="path144"
       d="m 153.50212,234.71061 0.42466,10.44423"
       style="fill:none;stroke:#000000;stroke-width:0.264583px;stroke-linecap:butt;stroke-linejoin:miter;stroke-opacity:1" />
  </g>
</svg>
